<svg xmlns="http://www.w3.org/2000/svg" viewBox="0 0 1254 1254">
  <rect width="1254" height="1254" fill="#82d1a0"/>
  <g transform="translate(0,1254) scale(0.1,-0.1)" fill="#165040" stroke="none">
    <path d="M0 6270 l0 -6270 6270 0 6270 0 0 6270 0 6270 -6270 0 -6270 0 0
-6270z m6517 3415 c216 -9 461 -56 673 -130 235 -82 537 -253 760 -431 314
-251 631 -670 811 -1074 103 -229 156 -394 304 -945 73 -270 158 -419 292
-511 104 -71 161 -89 288 -89 107 0 112 1 189 38 141 67 243 198 297 382 52
176 30 448 -55 680 -12 31 117 -105 162 -173 48 -70 113 -198 136 -265 72
-216 53 -461 -51 -635 -178 -300 -575 -392 -950 -222 -37 17 -68 28 -70 26
-14 -14 120 -682 164 -821 68 -213 186 -404 302 -489 249 -183 550 -106 699
181 53 103 75 192 76 318 0 120 -14 184 -64 290 -49 102 -111 166 -236 241
-16 10 -8 13 48 19 176 19 324 -40 433 -172 99 -120 153 -267 162 -438 20
-390 -206 -724 -567 -836 -107 -34 -319 -34 -433 -1 -255 74 -453 255 -590
539 -49 103 -55 95 -37 -57 35 -306 122 -572 246 -746 52 -74 152 -167 227
-212 170 -103 403 -118 599 -41 134 53 292 174 388 298 29 39 55 69 56 68 7
-8 -23 -139 -52 -227 -175 -526 -652 -773 -1173 -609 -246 78 -472 257 -635
501 -92 138 -151 262 -204 428 -54 171 -70 242 -54 248 31 10 172 124 227 183
145 155 250 377 277 584 6 44 19 101 29 127 72 179 65 428 -17 590 -90 180
-238 305 -403 339 -76 16 -194 6 -264 -21 -74 -28 -167 -116 -202 -191 -50
-109 -57 -247 -19 -369 l17 -55 18 72 c25 100 62 174 119 236 147 161 367 164
514 8 178 -191 157 -524 -45 -705 -60 -54 -121 -83 -213 -103 -199 -41 -442
75 -611 292 -218 282 -338 622 -458 1295 -11 66 -5 -214 8 -355 63 -664 268
-1103 612 -1307 119 -71 216 -100 348 -106 142 -5 209 8 320 62 49 24 92 43
94 41 8 -8 -94 -183 -141 -242 -127 -161 -304 -272 -526 -330 -84 -22 -119
-25 -262 -26 -172 -1 -246 10 -381 54 -138 45 -284 133 -402 240 l-68 62 74
76 c126 129 207 273 255 451 35 131 36 353 3 475 -96 357 -384 597 -716 598
-170 0 -310 -58 -417 -172 -89 -94 -148 -223 -148 -321 l0 -35 29 50 c16 28
56 76 90 108 150 143 342 155 480 31 93 -83 134 -184 135 -329 1 -145 -47
-260 -153 -366 -165 -164 -388 -192 -620 -78 -94 46 -209 148 -271 239 -125
184 -189 391 -212 683 -31 406 56 898 249 1396 24 62 42 115 40 118 -9 8 -143
-221 -216 -367 -170 -344 -264 -643 -317 -1013 l-7 -49 -36 34 c-102 97 -222
160 -351 185 -139 28 -300 -3 -416 -80 l-49 -32 75 -6 c97 -7 146 -22 202 -59
186 -123 240 -364 135 -594 -28 -61 -108 -152 -172 -196 -217 -148 -532 -72
-691 168 -228 343 -126 884 250 1325 37 42 64 77 60 77 -13 0 -184 -153 -232
-208 -164 -189 -268 -390 -319 -621 -22 -103 -23 -330 0 -423 95 -389 417
-607 785 -532 302 61 532 344 532 654 0 74 -32 196 -70 272 l-30 59 52 -28
c72 -39 166 -134 216 -218 180 -307 127 -721 -127 -988 -232 -244 -629 -342
-944 -232 -259 90 -432 302 -563 688 l-45 132 6 -95 c13 -188 71 -413 145
-560 l33 -65 -6 -155 c-19 -500 -189 -965 -447 -1221 -204 -203 -461 -269
-780 -199 -495 108 -928 554 -1038 1070 -24 112 -38 250 -25 235 5 -5 43 -57
83 -115 87 -124 244 -284 353 -359 398 -272 874 -303 1191 -77 83 59 176 160
226 245 39 68 80 155 80 170 0 5 -44 -36 -97 -89 -146 -145 -306 -242 -474
-285 -204 -53 -450 -28 -649 67 l-85 40 85 18 c179 38 334 112 499 238 85 65
184 153 178 158 -2 3 -50 -1 -106 -7 -460 -50 -887 257 -977 700 -20 101 -15
270 11 366 45 164 147 310 284 407 35 25 43 27 36 12 -137 -330 -78 -688 155
-937 265 -284 644 -285 845 -3 107 151 172 344 219 651 15 97 66 513 66 539 0
8 -39 -6 -107 -41 -67 -33 -146 -63 -208 -79 -89 -23 -114 -25 -235 -21 -110
4 -150 9 -215 30 -299 97 -481 372 -462 697 12 201 98 408 235 565 40 46 174
167 179 162 2 -2 -5 -28 -15 -58 -45 -130 -57 -209 -57 -374 0 -191 19 -276
92 -425 59 -122 153 -220 258 -271 64 -31 78 -34 165 -34 86 0 101 3 160 31
119 57 215 164 300 334 26 52 96 210 155 350 257 603 491 992 774 1283 414
427 983 686 1593 726 68 4 141 6 163 5 22 -2 95 -6 162 -9z m595 -3152 c147
-77 258 -229 294 -403 22 -104 14 -298 -16 -395 -78 -247 -239 -434 -471 -545
-143 -68 -218 -83 -409 -84 -151 0 -173 3 -253 27 -205 63 -356 172 -487 352
l-58 80 24 75 c14 41 30 107 36 147 l10 71 61 -80 c99 -132 240 -234 392 -285
73 -25 94 -27 235 -27 149 -1 159 1 243 30 122 44 189 86 282 179 130 129 199
293 198 470 -1 135 -45 274 -115 361 -63 78 -63 78 34 27z m-2765 -1544 c45
-15 115 -33 156 -39 l74 -12 -17 -97 c-118 -655 -563 -1163 -1099 -1255 -52
-9 -96 -15 -97 -13 -2 2 34 27 79 57 224 148 444 436 572 748 71 174 129 405
160 634 l6 48 42 -22 c23 -11 79 -33 124 -49z m4183 -296 c19 -102 88 -317
139 -437 217 -512 578 -838 1004 -906 50 -8 125 -11 210 -7 l132 5 -68 -34
c-281 -143 -616 -172 -912 -78 -112 35 -307 133 -390 196 -325 247 -551 625
-654 1095 -17 78 -31 143 -31 145 0 2 43 2 96 0 115 -4 286 19 380 52 38 14
72 25 76 25 4 1 12 -25 18 -56z m-4024 -933 c11 -210 -16 -361 -91 -515 -131
-271 -398 -424 -672 -386 -115 16 -225 60 -332 131 -80 55 -226 178 -219 186
2 2 32 -5 66 -16 136 -42 325 -42 465 0 278 84 540 338 706 682 54 113 56 116
63 85 4 -18 11 -93 14 -167z"/>
  </g>
</svg>